<?xml version="1.0" encoding="utf-8"?><!-- Uploaded to: Free PNG Logo, freepnglogo.com -->
<svg xmlns="http://www.w3.org/2000/svg" width="480.245" height="129.875" viewBox="0 0 127.065 34.363"><defs><clipPath id="a" clipPathUnits="userSpaceOnUse"><path d="M-177.281 424.987h576v-576h-576Z"/></clipPath><clipPath id="b" clipPathUnits="userSpaceOnUse"><path d="M-333.265 388.249h576v-576h-576Z"/></clipPath><clipPath id="c" clipPathUnits="userSpaceOnUse"><path d="M-209.44 399.95h576v-576h-576Z"/></clipPath><clipPath id="d" clipPathUnits="userSpaceOnUse"><path d="M-208.222 458.614h576v-576h-576Z"/></clipPath><clipPath id="e" clipPathUnits="userSpaceOnUse"><path d="M-398.032 416.163h576v-576h-576Z"/></clipPath><clipPath id="f" clipPathUnits="userSpaceOnUse"><path d="M-437.584 464.405h576v-576h-576Z"/></clipPath><clipPath id="g" clipPathUnits="userSpaceOnUse"><path d="M-257.202 416.021h576v-576h-576Z"/></clipPath></defs><path d="M0 0h-30.267a1.416 1.416 0 0 1-1.415-1.415v-14.798c0-.781.634-1.417 1.415-1.417h11.807v-18.385s-2.651-.904-9.981-.904c-8.647 0-20.727 3.16-20.727 29.724 0 26.569 12.579 30.064 24.388 30.064 10.222 0 14.626-1.799 17.428-2.667.881-.269 1.695.608 1.695 1.389l3.377 14.298c0 .366-.124.805-.54 1.104-1.138.813-8.081 4.697-25.621 4.697-20.205 0-40.932-8.596-40.932-49.921 0-41.327 23.73-47.485 43.727-47.485 16.557 0 26.601 7.075 26.601 7.075.414.229.459.808.459 1.073v46.153C1.414-.634.781 0 0 0" clip-path="url(#a)" style="fill:#fff;fill-opacity:1;fill-rule:nonzero;stroke:none" transform="matrix(.35278 0 0 -.35278 24.473 14.707)"/><path d="M0 0a1.41 1.41 0 0 1-1.405 1.423h-17.042A1.416 1.416 0 0 1-19.858 0l.004-32.934h-26.564V0c0 .788-.627 1.423-1.407 1.423h-17.041A1.415 1.415 0 0 1-66.273 0v-89.177a1.42 1.42 0 0 1 1.407-1.427h17.041c.78 0 1.407.64 1.407 1.427v38.145h26.564l-.046-38.145a1.42 1.42 0 0 1 1.412-1.427h17.082c.78 0 1.404.64 1.406 1.427z" clip-path="url(#b)" style="fill:#fff;fill-opacity:1;fill-rule:nonzero;stroke:none" transform="matrix(.35278 0 0 -.35278 79.5 1.747)"/><path d="M0 0c0 6.136-4.92 11.095-10.99 11.095-6.064 0-10.987-4.959-10.987-11.095 0-6.131 4.923-11.104 10.987-11.104C-4.92-11.104 0-6.131 0 0" clip-path="url(#c)" style="fill:#fff;fill-opacity:1;fill-rule:nonzero;stroke:none" transform="matrix(.35278 0 0 -.35278 35.818 5.875)"/><path d="M0 0v41.164c0 .782-.63 1.421-1.41 1.421h-16.988c-.78 0-1.477-.804-1.477-1.585v-58.977c0-1.733 1.08-2.249 2.478-2.249h15.306C-.412-20.226 0-19.4 0-17.949z" clip-path="url(#d)" style="fill:#fff;fill-opacity:1;fill-rule:nonzero;stroke:none" transform="matrix(.35278 0 0 -.35278 35.388 26.57)"/><path d="M0 0h-16.911c-.776 0-1.407-.64-1.407-1.427v-43.725s-4.297-3.144-10.395-3.144-7.716 2.767-7.716 8.737v38.132c0 .787-.63 1.427-1.406 1.427h-17.164c-.774 0-1.409-.64-1.409-1.427v-41.018c0-17.736 9.884-22.075 23.481-22.075 11.156 0 20.15 6.164 20.15 6.164s.427-3.248.622-3.633c.193-.384.698-.773 1.244-.773l10.919.049c.774 0 1.409.64 1.409 1.424L1.411-1.427A1.42 1.42 0 0 1 0 0" clip-path="url(#e)" style="fill:#fff;fill-opacity:1;fill-rule:nonzero;stroke:none" transform="matrix(.35278 0 0 -.35278 102.35 11.594)"/><path d="M0 0c-5.866.179-9.845 2.841-9.845 2.841v28.24s3.925 2.406 8.741 2.836c6.09.546 11.958-1.294 11.958-15.821C10.854 2.776 8.206-.247 0 0m6.67 50.245c-9.605 0-16.138-4.285-16.138-4.285v30.196c0 .788-.63 1.423-1.406 1.423h-17.091a1.415 1.415 0 0 1-1.408-1.423v-89.177c0-.787.631-1.426 1.41-1.426h11.858c.534 0 .938.275 1.237.757.295.479.72 4.112.72 4.112s6.988-6.623 20.217-6.623c15.532 0 24.439 7.878 24.439 35.366S16.282 50.245 6.67 50.245" clip-path="url(#f)" style="fill:#fff;fill-opacity:1;fill-rule:nonzero;stroke:none" transform="matrix(.35278 0 0 -.35278 116.302 28.613)"/><path d="M0 0h-12.784l-.019 16.889c0 .639-.329.959-1.069.959h-17.42c-.677 0-1.041-.298-1.041-.95V-.554s-8.73-2.107-9.32-2.277a1.42 1.42 0 0 1-1.021-1.359v-10.967c0-.789.63-1.426 1.409-1.426h8.932v-26.384c0-19.596 13.746-21.521 23.021-21.521 4.239 0 9.309 1.361 10.146 1.67.506.186.801.711.801 1.279l.014 12.064a1.44 1.44 0 0 1-1.413 1.424c-.745 0-2.651-.303-4.613-.303-6.279 0-8.407 2.919-8.407 6.699l-.001 25.072H0c.779 0 1.411.637 1.411 1.426v13.736C1.411-.634.779 0 0 0" clip-path="url(#g)" style="fill:#fff;fill-opacity:1;fill-rule:nonzero;stroke:none" transform="matrix(.35278 0 0 -.35278 52.667 11.544)"/></svg>